<svg xmlns="http://www.w3.org/2000/svg" xmlns:xlink="http://www.w3.org/1999/xlink" width="500" zoomAndPan="magnify" viewBox="0 0 375 374.999991" height="500" preserveAspectRatio="xMidYMid meet" version="1.0"><defs><g/><clipPath id="286b8a5840"><path d="M 178.847656 161.222656 L 337.5 161.222656 L 337.5 213.777344 L 178.847656 213.777344 Z M 178.847656 161.222656 " clip-rule="nonzero"/></clipPath><clipPath id="7ddfe3b5dc"><path d="M 207 141 L 244 141 L 244 178 L 207 178 Z M 207 141 " clip-rule="nonzero"/></clipPath><clipPath id="b72e8749ef"><path d="M 203.332031 168.117188 L 233.007812 136.949219 L 247.105469 150.371094 L 217.429688 181.539062 Z M 203.332031 168.117188 " clip-rule="nonzero"/></clipPath><clipPath id="3a6ac0ab7f"><path d="M 210.042969 161.066406 L 226.261719 144.035156 C 228.042969 142.164062 230.492188 141.078125 233.070312 141.015625 C 235.652344 140.953125 238.152344 141.917969 240.023438 143.699219 C 241.890625 145.476562 242.976562 147.925781 243.039062 150.507812 C 243.101562 153.089844 242.140625 155.589844 240.359375 157.457031 L 224.140625 174.492188 C 222.359375 176.359375 219.910156 177.445312 217.328125 177.507812 C 214.75 177.574219 212.25 176.609375 210.378906 174.828125 C 208.511719 173.046875 207.425781 170.597656 207.363281 168.019531 C 207.296875 165.4375 208.261719 162.9375 210.042969 161.066406 Z M 210.042969 161.066406 " clip-rule="nonzero"/></clipPath></defs><rect x="-37.5" width="450" fill="#ffffff" y="-37.499999" height="449.999989" fill-opacity="1"/><rect x="-37.5" width="450" fill="#152039" y="-37.499999" height="449.999989" fill-opacity="1"/><path fill="#004be0" d="M 134.257812 126.40625 C 137.90625 122.753906 143.789062 122.753906 147.4375 126.40625 C 151.085938 130.054688 151.085938 135.933594 147.4375 139.582031 L 131.519531 155.5 C 127.871094 159.148438 121.992188 159.148438 118.34375 155.5 C 114.691406 151.851562 114.691406 145.96875 118.34375 142.320312 Z M 223.433594 248.5625 C 219.785156 252.210938 213.90625 252.210938 210.253906 248.5625 C 206.605469 244.910156 206.605469 239.03125 210.253906 235.382812 L 226.171875 219.464844 C 229.820312 215.816406 235.699219 215.816406 239.351562 219.464844 C 243 223.117188 243 228.996094 239.351562 232.644531 Z M 208.328125 126.335938 C 211.980469 122.6875 217.859375 122.6875 221.507812 126.335938 C 225.15625 129.988281 225.15625 135.867188 221.507812 139.515625 L 206.742188 154.28125 C 203.089844 157.933594 197.210938 157.933594 193.5625 154.28125 C 189.914062 150.632812 189.914062 144.753906 193.5625 141.105469 Z M 188.796875 219.871094 C 192.445312 216.222656 198.328125 216.222656 201.976562 219.871094 C 205.625 223.523438 205.625 229.402344 201.976562 233.050781 L 176.195312 258.832031 C 172.542969 262.484375 166.664062 262.484375 163.015625 258.832031 C 159.367188 255.183594 159.367188 249.304688 163.015625 245.65625 Z M 237.019531 171.652344 C 240.667969 168.003906 246.546875 168.003906 250.195312 171.652344 C 253.847656 175.300781 253.847656 181.179688 250.195312 184.832031 L 224.414062 210.613281 C 220.765625 214.261719 214.882812 214.261719 211.234375 210.613281 C 207.585938 206.964844 207.585938 201.085938 211.234375 197.433594 Z M 133.3125 164.386719 C 136.960938 160.738281 142.839844 160.738281 146.492188 164.386719 C 150.140625 168.035156 150.140625 173.914062 146.492188 177.566406 L 120.675781 203.3125 C 117.023438 206.964844 111.144531 206.964844 107.496094 203.3125 C 103.847656 199.664062 103.847656 193.785156 107.496094 190.136719 Z M 181.53125 116.167969 L 155.75 141.949219 C 152.101562 145.597656 152.101562 151.476562 155.75 155.128906 C 159.398438 158.777344 165.277344 158.777344 168.929688 155.128906 L 194.675781 129.3125 C 198.328125 125.660156 198.328125 119.78125 194.675781 116.132812 C 191.0625 112.515625 185.148438 112.515625 181.53125 116.167969 Z M 132.46875 202.199219 L 117.699219 216.964844 C 114.050781 220.617188 114.050781 226.496094 117.699219 230.144531 C 121.351562 233.792969 127.230469 233.792969 130.878906 230.144531 L 145.644531 215.378906 C 149.296875 211.726562 149.296875 205.847656 145.644531 202.199219 C 141.996094 198.582031 136.117188 198.582031 132.46875 202.199219 Z M 226.8125 144.855469 L 212.046875 159.621094 C 208.398438 163.273438 208.398438 169.152344 212.046875 172.800781 C 215.695312 176.449219 221.574219 176.449219 225.226562 172.800781 L 239.992188 158.035156 C 243.640625 154.382812 243.640625 148.503906 239.992188 144.855469 C 236.375 141.207031 230.460938 141.207031 226.8125 144.855469 Z M 150.953125 220.71875 L 136.21875 235.484375 C 132.570312 239.132812 132.570312 245.011719 136.21875 248.664062 C 139.867188 252.3125 145.746094 252.3125 149.398438 248.664062 L 164.164062 233.894531 C 167.8125 230.246094 167.8125 224.367188 164.164062 220.71875 C 160.515625 217.066406 154.601562 217.066406 150.953125 220.71875 Z M 150.953125 220.71875 " fill-opacity="1" fill-rule="evenodd"/><g clip-path="url(#286b8a5840)"><path fill="#152039" d="M 178.847656 161.222656 L 337.527344 161.222656 L 337.527344 213.777344 L 178.847656 213.777344 Z M 178.847656 161.222656 " fill-opacity="1" fill-rule="nonzero"/></g><g clip-path="url(#7ddfe3b5dc)"><g clip-path="url(#b72e8749ef)"><g clip-path="url(#3a6ac0ab7f)"><path fill="#f14902" d="M 203.332031 168.117188 L 232.957031 137.003906 L 247.054688 150.425781 L 217.429688 181.539062 Z M 203.332031 168.117188 " fill-opacity="1" fill-rule="nonzero"/></g></g></g><g fill="#f3f6fa" fill-opacity="1"><g transform="translate(156.487567, 203.675466)"><g><path d="M 19.070312 0 L 19.070312 -22.398438 L 13.597656 -22.398438 L 13.597656 -13.949219 L 7.070312 -13.949219 L 7.070312 -22.398438 L 1.601562 -22.398438 L 1.601562 0 L 7.070312 0 L 7.070312 -8.671875 L 13.597656 -8.671875 L 13.597656 0 Z M 19.070312 0 "/></g></g></g><g fill="#f3f6fa" fill-opacity="1"><g transform="translate(177.474404, 203.675466)"><g><path d="M 8.832031 -17.597656 C 3.199219 -17.597656 0.449219 -13.628906 0.449219 -8.894531 C 0.449219 -4.128906 3.296875 0.222656 8.765625 0.222656 C 10.429688 0.222656 12.125 -0.257812 13.308594 -1.726562 L 13.308594 0 L 18.332031 0 L 18.332031 -17.308594 L 13.308594 -17.308594 L 13.308594 -15.515625 C 12.191406 -16.957031 10.527344 -17.597656 8.832031 -17.597656 Z M 9.375 -4.605469 C 6.816406 -4.605469 5.503906 -6.6875 5.503906 -8.765625 C 5.503906 -10.878906 6.78125 -12.957031 9.375 -12.957031 C 11.550781 -12.957031 13.308594 -11.070312 13.308594 -8.765625 C 13.308594 -6.464844 11.550781 -4.605469 9.375 -4.605469 Z M 9.375 -4.605469 "/></g></g></g><g fill="#f3f6fa" fill-opacity="1"><g transform="translate(198.045353, 203.675466)"><g><path d="M 5.695312 -16.15625 L 5.503906 -17.308594 L 0.960938 -17.308594 L 0.960938 0 L 5.984375 0 L 5.984375 -9.597656 C 5.984375 -11.933594 7.839844 -12.894531 9.664062 -12.925781 C 10.238281 -12.925781 10.847656 -12.828125 11.359375 -12.671875 L 11.421875 -17.40625 C 10.75 -17.566406 10.078125 -17.660156 9.46875 -17.660156 C 8.0625 -17.660156 6.816406 -17.214844 5.695312 -16.15625 Z M 5.695312 -16.15625 "/></g></g></g><g fill="#f3f6fa" fill-opacity="1"><g transform="translate(211.162123, 203.675466)"><g><path d="M 0.640625 -11.742188 C 0.640625 -7.933594 4.03125 -6.6875 7.292969 -6.398438 C 8.125 -6.335938 10.046875 -6.496094 10.046875 -5.246094 C 10.046875 -4.671875 9.214844 -4.191406 7.964844 -4.191406 C 6.78125 -4.191406 5.472656 -4.640625 5.4375 -5.824219 L 0.382812 -5.824219 C 0.449219 -1.40625 3.582031 0.449219 7.710938 0.449219 C 11.550781 0.449219 15.101562 -1.023438 15.101562 -5.375 C 15.101562 -9.46875 11.421875 -11.007812 7.808594 -11.101562 C 7.070312 -11.132812 5.726562 -11.167969 5.726562 -12.0625 C 5.726562 -12.988281 6.75 -13.246094 7.488281 -13.246094 C 8.542969 -13.246094 9.886719 -13.148438 9.917969 -11.804688 L 14.75 -11.804688 C 14.71875 -15.835938 11.484375 -17.726562 7.773438 -17.726562 C 3.902344 -17.726562 0.640625 -15.933594 0.640625 -11.742188 Z M 0.640625 -11.742188 "/></g></g></g><g fill="#f3f6fa" fill-opacity="1"><g transform="translate(227.638078, 203.675466)"><g><path d="M 5.855469 -15.582031 L 5.855469 -22.554688 L 0.769531 -22.554688 L 0.769531 0 L 6.109375 0 L 6.109375 -9.40625 C 6.109375 -11.484375 7.933594 -12.796875 9.4375 -12.796875 C 10.8125 -12.796875 12.09375 -11.804688 12.09375 -9.503906 L 12.09375 0 L 17.179688 0 L 17.179688 -9.535156 C 17.246094 -13.855469 15.871094 -17.5 10.941406 -17.566406 C 9.085938 -17.566406 7.101562 -17.117188 5.855469 -15.582031 Z M 5.855469 -15.582031 "/></g></g></g><g fill="#f14902" fill-opacity="1"><g transform="translate(253.846159, 206.375466)"><g><path d="M 4.621094 -19.140625 C 7.664062 -19.140625 9.132812 -20.402344 9.132812 -22.710938 C 9.132812 -24.988281 7.59375 -26.386719 4.621094 -26.386719 C 1.609375 -26.386719 0.0703125 -24.988281 0.0703125 -22.710938 C 0.0703125 -20.402344 1.574219 -19.140625 4.621094 -19.140625 Z M 0.386719 0 L 0.386719 -18.546875 L 8.855469 -18.546875 L 8.855469 0 Z M 0.386719 0 "/></g></g></g><g fill="#f14902" fill-opacity="1"><g transform="translate(264.273809, 206.375466)"><g><path d="M 4.410156 -16.832031 L 4.410156 0 L 13.964844 0 L 13.964844 -16.832031 L 19.175781 -16.832031 L 19.175781 -24.496094 L -0.804688 -24.496094 L -0.804688 -16.832031 Z M 4.410156 -16.832031 "/></g></g></g></svg>